PathFileType	4	(X/Y/Z)	D:\TRACE\v60_Jaco2_6-2-23\v60_baseline_4-platform.trc
DataRate	CameraRate	NumFrames	NumMarkers	Units	OrigDataRate	OrigDataStartFrame	OrigNumFrames
100.00	100.00	      44	5	mm	100.00	1	      6500
Frame#	Time	Left_Front			Right_Front			Left_Aft			Right_Aft			Post			
		X1	Y1	Z1	X2	Y2	Z2	X3	Y3	Z3	X4	Y4	Z4	X5	Y5	Z5	

1	0.000	-800.57068	8.83219	-638.78680	769.38684	10.12604	-644.38519	-708.65680	7.94053	496.16660	733.43536	6.94088	505.87860	-14.15146	1308.21606	-961.71429	
2	0.010	-800.58508	8.86237	-638.79169	769.41449	10.14522	-644.35822	-708.71539	7.98166	496.14481	733.39197	6.90350	505.87527	-14.12422	1308.18286	-961.73578	
3	0.020	-800.55865	8.83602	-638.84106	769.45142	10.12810	-644.34949	-708.65509	7.97666	496.14267	733.47021	6.93507	505.85361	-14.10086	1308.17249	-961.69354	
4	0.030	-800.54681	8.85239	-638.81940	769.42419	10.15426	-644.37848	-708.66077	8.00339	496.14090	733.51404	6.95377	505.87299	-14.01052	1308.17554	-961.67108	
5	0.040	-800.52539	8.86040	-638.81445	769.43707	10.13291	-644.41003	-708.68872	8.04381	496.08777	733.48553	6.93456	505.84540	-14.12363	1308.22693	-961.72858	
6	0.050	-800.56232	8.81488	-638.84210	769.41003	10.11774	-644.41107	-708.69250	8.00357	496.12689	733.44067	6.93671	505.85989	-14.07785	1308.17725	-961.70465	
7	0.060	-800.59039	8.90444	-638.76593	769.34741	10.19514	-644.41992	-708.67676	7.98552	496.13638	733.44525	6.94364	505.84830	-14.06687	1308.15625	-961.69794	
8	0.070	-800.54492	8.90848	-638.74237	769.38629	10.17952	-644.38159	-708.69086	8.02111	496.11432	733.44592	6.93455	505.86328	-14.07807	1308.16833	-961.70673	
9	0.080	-800.58997	8.89996	-638.80157	769.42139	10.14386	-644.41125	-708.70392	8.00960	496.10159	733.48486	6.93355	505.85950	-14.09130	1308.18066	-961.70276	
10	0.090	-800.53314	8.86581	-638.83728	769.41589	10.15908	-644.39624	-708.72705	8.07724	496.07990	733.48151	6.97143	505.84662	-14.12347	1308.21960	-961.72333	
11	0.100	-800.51123	8.88092	-638.87653	769.42175	10.12636	-644.37372	-708.74084	8.05833	496.07770	733.51239	6.94496	505.85486	-14.09415	1308.20691	-961.68457	
12	0.110	-800.56964	8.81975	-638.80438	769.40363	10.14410	-644.39856	-708.74457	8.05551	496.11725	733.45923	6.95273	505.85507	-14.16151	1308.24084	-961.70007	
13	0.120	-800.56189	8.94088	-638.76526	769.38416	10.14528	-644.41229	-708.70258	8.03107	496.10529	733.50940	6.95521	505.85571	-14.14796	1308.19873	-961.68549	
14	0.130	-800.54071	8.90559	-638.82733	769.43036	10.14233	-644.34918	-708.70441	8.06892	496.07330	733.50873	6.98065	505.84067	-14.14878	1308.26135	-961.72009	
15	0.140	-800.50342	8.92038	-638.83295	769.43127	10.16310	-644.35327	-708.73004	8.06501	496.04163	733.47913	6.95188	505.83664	-14.09144	1308.26990	-961.72443	
16	0.150	-800.51538	8.85090	-638.87225	769.33942	10.16990	-644.42450	-708.70453	8.05956	496.10309	733.26312	7.02201	505.95291	-14.11931	1308.21228	-961.66254	
17	0.160	-800.55377	8.88111	-638.77985	769.40808	10.17775	-644.40375	-708.73566	8.05226	496.11151	733.49048	6.96739	505.83386	-14.13534	1308.24231	-961.74310	
18	0.170	-800.60291	8.90173	-638.76874	769.38647	10.14904	-644.40594	-708.73590	8.04772	496.07190	733.43018	6.93729	505.86209	-14.15596	1308.19995	-961.68317	
19	0.180	-800.55109	8.89344	-638.85187	769.43713	10.13976	-644.37201	-708.72241	8.02922	496.08075	733.52863	6.94463	505.85788	-14.13985	1308.18542	-961.71332	
20	0.190	-800.52338	8.87905	-638.85248	769.37604	10.13909	-644.41547	-708.69421	8.01906	496.08670	733.50018	6.93854	505.86810	-14.13119	1308.19897	-961.69995	
21	0.200	-800.56531	8.88391	-638.79681	769.44232	10.14673	-644.36597	-708.72479	8.05207	496.07794	733.47845	6.94323	505.85474	-14.06602	1308.15625	-961.68970	
22	0.210	-800.59100	8.85219	-638.80438	769.46204	10.11693	-644.31366	-708.68939	7.99801	496.10788	733.46851	6.93095	505.87473	-14.04999	1308.15942	-961.70123	
23	0.220	-800.58112	8.84172	-638.78009	769.43555	10.12856	-644.32898	-708.67059	8.01095	496.08554	733.43335	6.90662	505.88199	-14.07597	1308.16785	-961.73035	
24	0.230	-800.59918	8.85248	-638.79297	769.36914	10.14750	-644.38678	-708.71844	8.06992	496.07657	733.21191	6.95766	505.99097	-14.09958	1308.19519	-961.66998	
25	0.240	-800.55402	8.86075	-638.78906	769.42773	10.10689	-644.38208	-708.74469	8.06178	496.03622	733.50232	6.90069	505.88284	-14.12079	1308.19275	-961.70612	
26	0.250	-800.57062	8.88882	-638.81024	769.41217	10.12705	-644.39832	-708.70917	7.99981	496.10303	733.48602	6.93114	505.86584	-14.12176	1308.19873	-961.70807	
27	0.260	-800.55090	8.80890	-638.84619	769.36108	10.17816	-644.39264	-708.69287	8.00661	496.14441	733.47083	6.92418	505.87384	-14.03315	1308.18298	-961.68005	
28	0.270	-800.59515	8.88186	-638.82391	769.32324	10.21485	-644.41632	-708.68762	8.02086	496.13766	733.50116	6.92520	505.88770	-14.08654	1308.19666	-961.67334	
29	0.280	-800.58081	8.85042	-638.83807	769.37378	10.19959	-644.34607	-708.70953	8.02667	496.10883	733.47974	6.93902	505.86356	-14.13178	1308.23486	-961.70709	
30	0.290	-800.56140	8.89391	-638.78711	769.42950	10.14947	-644.37469	-708.68481	8.05487	496.11853	733.49799	6.95615	505.86526	-14.15999	1308.26306	-961.67590	
31	0.300	-800.49921	8.86464	-638.89758	769.43719	10.15292	-644.37830	-708.72150	8.05340	496.09418	733.49774	6.95514	505.85748	-14.13390	1308.23218	-961.71387	
32	0.310	-800.54120	8.89198	-638.82013	769.45496	10.12811	-644.36597	-708.70880	8.04500	496.09366	733.47333	6.94919	505.85837	-14.21938	1308.29810	-961.72205	
33	0.320	-800.50934	8.88512	-638.84076	769.41376	10.18116	-644.33905	-708.71423	8.04134	496.11478	733.50873	6.95042	505.86252	-14.10805	1308.25061	-961.70557	
34	0.330	-800.54181	8.83434	-638.83002	769.39734	10.15242	-644.38123	-708.74292	8.08732	496.06607	733.19513	6.97733	505.98132	-14.12588	1308.21887	-961.68945	
35	0.340	-800.55566	8.92139	-638.81244	769.46515	10.15954	-644.38428	-708.69617	8.01794	496.09341	733.50507	6.96280	505.85287	-14.20836	1308.22119	-961.68732	
36	0.350	-800.52783	8.88537	-638.84241	769.45917	10.16536	-644.34814	-708.68835	8.06105	496.04086	733.50677	6.96022	505.85834	-14.13983	1308.22290	-961.70197	
37	0.360	-800.60565	8.90309	-638.78265	769.44537	10.14495	-644.34564	-708.70465	8.01875	496.11673	733.50977	6.93784	505.87384	-14.16564	1308.20215	-961.71692	
38	0.370	-800.56622	8.86719	-638.80402	769.46509	10.12330	-644.34015	-708.70764	8.02135	496.08731	733.17316	6.94718	506.01917	-14.07846	1308.17908	-961.66193	
39	0.380	-800.59155	8.89696	-638.75702	769.34613	10.14994	-644.39313	-708.73480	8.03371	496.07773	733.43622	6.90553	505.87695	-14.07341	1308.16077	-961.70721	
40	0.390	-800.59302	8.91743	-638.71576	769.33948	10.17212	-644.35120	-708.71674	7.98647	496.11890	733.41675	6.91051	505.89008	-14.11212	1308.14575	-961.67981	
41	0.400	-800.56879	8.86636	-638.79791	769.33838	10.18266	-644.38440	-708.68921	8.01696	496.13062	733.47058	6.91912	505.87115	-14.10611	1308.21667	-961.69586	
42	0.410	-800.54999	8.90102	-638.77515	769.45563	10.12885	-644.36670	-708.73022	8.08011	496.04694	733.45984	6.93318	505.86197	-14.14440	1308.24268	-961.73004	
43	0.420	-800.54425	8.91321	-638.79492	769.40839	10.13706	-644.34845	-708.68677	8.02177	496.14386	733.48254	6.93821	505.87204	-14.15175	1308.23218	-961.67108	
44	0.430	-800.49561	8.82085	-638.85760	769.42529	10.13382	-644.34460	-708.66089	8.00728	496.10590	733.45386	6.94206	505.85880	-14.14538	1308.27625	-961.72528	
